<?xml version="1.0" encoding="utf-8"?>
<!-- Generator: Adobe Illustrator 19.1.0, SVG Export Plug-In . SVG Version: 6.00 Build 0)  -->
<svg version="1.1" baseProfile="tiny" id="Layer_1" xmlns="http://www.w3.org/2000/svg" xmlns:xlink="http://www.w3.org/1999/xlink"
	 x="0px" y="0px" viewBox="0 0 1046 763.6" xml:space="preserve">
<g>
	<path fill="#7CF66D" d="M934.4,429.8c-23.9,0.1-47.7,12.9-65.5,35.3c-11.2,14.1-19.1,31.1-22.3,47.8c-5.1,26.9,3.9,47.8,10.5,63.1
		c1.9,4.4,3.5,8.1,4.4,11.1l0.2,0.6l0.2,0.5c3.2,8,33.5,77.7,96.4,72.8c36.3-2.8,61.5-23.2,69.8-33.7c16.8-21.3,21.9-49.7,14.6-82.4
		c-5.7-25.6-19.3-53-36.4-73.2C994.8,458.2,970.7,429.7,934.4,429.8z M997.2,479.6c29.4,34.7,53.6,99.8,21.5,140.3
		c-6.2,7.8-28.7,26.6-61.3,29.1c-52.5,4-79.7-54-84.4-65.4c-4.5-15.1-20.4-37.7-14.6-68.5c6.8-36,38.5-73.3,76-73.4
		C965.1,441.7,986.2,466.7,997.2,479.6z"/>
	<path fill="#7CF66D" d="M973.5,654.1l-1,21.6c-0.1,3.4,2.7,6.1,6,5.8c8.5-0.7,24.4-3.3,39-11.7c3.3-1.9,3.7-6.5,0.9-9l-19-16.8
		L973.5,654.1z M1010.6,665l-30.3,7.6l2.8-21.7l12.8-4.9L1010.6,665z"/>
	<path fill="#7CF66D" d="M992.5,674.7c0,0,14.2,35.8,9.7,58.2c-4.5,22.4-7.5,65,9.3,91l12,9.5c0,0-27.1-46.7-16.7-84.4
		c10.4-37.7-10.3-74.8-10.3-74.8L992.5,674.7z"/>
	<circle fill="#7CF66D" cx="1004.8" cy="615.9" r="4.9"/>
	<path fill="#7CF66D" d="M1011.1,602.7c2-14.6,5.5-47-0.9-65.6c-0.2-0.7,0.4-1.4,0.7-0.9c5.9,8.9,18.6,34.3,2.3,67.8
		C1012.4,605.7,1010.8,604.6,1011.1,602.7z"/>
</g>
<g>
	<path fill="#5271FF" d="M135.1,765.3L120.7,545c0-0.7,0.7-1,1.2-0.6c4.4,3.9,18.2,18.1,27.5,15.3c9.1-2.7,8.2-15.5,5.8-21.3
		c-0.6-1.6-2.2-2.6-3.9-2.6c-2.3,0-6.2-0.1-10.1-1.1c-0.6-0.2-0.5-1,0.1-1.1c5.3-0.6,16.2-3.4,19.3-15.4c2.4-9.4-4.8-16.3-9.3-19.5
		c-1.5-1.1-3.5-0.4-4.1,1.3c-1.1,3.4-3.2,8.6-7.1,12.6c-0.7,0.7-1.9-0.1-1.5-1c2.8-6.1,6.7-18.3-0.9-27.4c-6.5-7.8-11.3-7.3-14-5.8
		c-1.6,0.9-2.4,2.8-2,4.6c1.2,5.2,3.7,18.2-0.1,27.9c-0.3,0.7-1.3,0.7-1.6-0.1c-1.2-3.7-4.2-11.1-8.9-14.2
		c-6.3-4.2-17.3,1.5-19.3,6.7c-2,5.1-0.6,10.6,3.5,12.9c3.7,2,10.8,3.7,13.9,9.9c0.7,1.3,0.4,2.9-0.7,4L-58.4,702.7
		c-1.9,2-2.1,5.1-0.4,7.3c12.4,15.7,65.9,72.1,188,62.1C132.7,771.9,135.4,768.8,135.1,765.3z M110.2,517c-2.4-2.1-6.5-5.1-12.1-7
		c-1-0.3-1.5-1.5-1.1-2.5c1-2.2,3.1-5.5,6.8-6.4c4.9-1.2,7.1,7.4,8.2,14.9C112.3,517,111,517.6,110.2,517z M124.4,516.6
		c4.5-9.5,4-22.5,3.3-28c-0.1-1.1,1.1-1.8,2-1.1c5.9,4.4,7.1,10.5,7.1,16.9C136.9,511.4,119.7,526.5,124.4,516.6z M148.6,540.5
		c1.2-0.1,2.3,0.7,2.3,1.9c0.2,2.7,0,7.2-2.2,10c-3.2,4-17.1-2.5-24.6-18.4c-0.4-0.8,0.5-1.6,1.3-1.2
		C130.1,535.6,141,541.2,148.6,540.5z M152.4,505c2.2,2.7,7,10.1-0.1,17c-6.4,6.3-13.3,5.6-16.6,4.8c-0.8-0.2-0.9-1.2-0.3-1.7
		c8.8-5.6,13.9-16.3,15.5-20C151.2,504.6,152,504.5,152.4,505z M-52.6,711.3l166-174.9l13.8,224C127.3,760.4,39.5,788.3-52.6,711.3z
		"/>
	<g id="XMLID_2_">
		<path fill="#5271FF" d="M125.8,738.7l0.5,8.2c-14.3,5.2-34.1,12.1-53.4,17.8c-8.5-0.6-17.7-1.9-27.6-4
			C68.7,755.3,100.4,747.4,125.8,738.7z"/>
		<path fill="#5271FF" d="M124.9,724.8l0.3,4.6c-27.3,7.8-70,18.6-107.9,23c-5.7-2.1-11.6-4.6-17.6-7.4
			C32,744.3,78.2,740.1,124.9,724.8z"/>
		<path fill="#5271FF" d="M123.6,702.7l0.5,8.6C90.2,719.3,18.4,734-30.1,728c-6-4-12.1-8.4-18.1-13.3
			C-23.5,721.4,26.4,724.7,123.6,702.7z"/>
		<path fill="#5271FF" d="M122.1,679.3l0.8,13c-35.3,7.4-126.4,24.5-170.3,13.2l7.9-8.4C-11.1,701.4,46.6,704.4,122.1,679.3z"/>
		<path fill="#5271FF" d="M120.5,652.7l0.8,13.2c-27.9,10.2-87.6,27.7-146.1,15.9l8-8.5C8.3,678.4,58.5,682.4,120.5,652.7z"/>
		<path fill="#5271FF" d="M119.5,636l0.5,8.2c-42.5,21.2-99.2,21.7-128.3,20.1l7.7-8.1C49.4,662,93.6,647.5,119.5,636z"/>
		<path fill="#5271FF" d="M118.3,617.3l0.4,6.4c-33.1,20.2-83,21.1-107.5,20.1l8.2-8.7C64.5,635.8,97.9,625.9,118.3,617.3z"/>
		<path fill="#5271FF" d="M117.1,597.8l0.6,9.1c-28.5,17.7-60.4,23.2-87.1,16.5l6.7-7.1C62.1,620.3,91,614,117.1,597.8z"/>
		<path fill="#5271FF" d="M116.3,585.4l0.3,4.7c-23,13.7-48.2,19.4-70.6,17l6.6-7C73,601.8,95.4,596.8,116.3,585.4z"/>
		<path fill="#5271FF" d="M115.3,567.8l0.5,8.4c-16.2,6.9-33,9.9-48.8,8.9l7.8-8.2C88,576.5,101.9,573.5,115.3,567.8z"/>
		<path fill="#5271FF" d="M114.3,552.4l0.4,6.7c-10.2,4.3-20.6,7-30.9,8.2l8.7-9.2C99.8,557,107.1,555.1,114.3,552.4z"/>
	</g>
</g>
<g>
	<rect x="510.5" y="648.1" fill="#35B729" width="51.5" height="149.5"/>
	<path fill="#2EB2FF" d="M537,748.5l86-174.2c5.2-10.6-7.6-20.8-16.8-13.4L536,617.3l-70.2-56.5c-9.2-7.4-22,2.9-16.8,13.4l86,174.2
		v4.1l1-2l1,2V748.5z"/>
	<path fill="#35B729" d="M581.5,660.6L581.5,660.6c-4.7,0-8.5-3.8-8.5-8.5v-13c0-4.7,3.8-8.5,8.5-8.5l0,0c4.7,0,8.5,3.8,8.5,8.5v13
		C590,656.8,586.2,660.6,581.5,660.6z"/>
	<path fill="#35B729" d="M581.5,702.6L581.5,702.6c-4.7,0-8.5-3.8-8.5-8.5v-13c0-4.7,3.8-8.5,8.5-8.5l0,0c4.7,0,8.5,3.8,8.5,8.5v13
		C590,698.8,586.2,702.6,581.5,702.6z"/>
	<path fill="#35B729" d="M487,702.6L487,702.6c-4.7,0-8.5-3.8-8.5-8.5v-13c0-4.7,3.8-8.5,8.5-8.5h0c4.7,0,8.5,3.8,8.5,8.5v13
		C495.5,698.8,491.7,702.6,487,702.6z"/>
	<path fill="#35B729" d="M487,660.6L487,660.6c-4.7,0-8.5-3.8-8.5-8.5v-13c0-4.7,3.8-8.5,8.5-8.5h0c4.7,0,8.5,3.8,8.5,8.5v13
		C495.5,656.8,491.7,660.6,487,660.6z"/>
	<g>
		<polyline fill="none" stroke="#FFFFFF" stroke-width="6" stroke-miterlimit="10" points="493,687.6 518,687.6 518,764.6 		"/>
		<polyline fill="none" stroke="#FFFFFF" stroke-width="6" stroke-miterlimit="10" points="502,641.6 529,641.6 529,764.6 		"/>
		<polyline fill="none" stroke="#FFFFFF" stroke-width="6" stroke-miterlimit="10" points="578,687.6 553,687.6 553,764.6 		"/>
		<polyline fill="none" stroke="#FFFFFF" stroke-width="6" stroke-miterlimit="10" points="569,641.6 542,641.6 542,764.6 		"/>
	</g>
</g>
<g>
	<g>
		<path fill="#35B729" d="M118,263.3c-4.8-15.8-6.8-43-7.4-55c-0.2-3.6-3.1-6.4-6.7-6.4c-10.6,0-17.6,3.5-21.2,5.9
			c-1.8,1.2-2.8,3.2-3,5.3c-1.5,29.1,7,69.1,11.5,84.9c3.8,13.3,9.7,59.2,11.8,75.7c0.5,3.6,3.7,6.3,7.3,6
			c9.6-0.8,16.6-4.7,20.3-7.3c1.9-1.3,2.9-3.5,2.9-5.7C132.4,308.3,124.2,283.6,118,263.3z M109.7,366.6c-0.7-24.7-9.3-71.7-15-92.7
			c-5.7-21-9-61-9-61l18.2-5c-1.5,20.3,6.5,65,12.2,81.8c5.7,16.8,6,75.2,6,75.2L109.7,366.6z"/>
		<path fill="#35B729" d="M106.2,165.4c-0.7-4-3-7.8-5.1-11.5c-1.7-2.8-3.5-6.1-3.8-8.1c-0.3-2.7-2.4-4.8-5.1-5.1
			c-0.2,0-0.5,0-0.7,0c-2.4,0-4.6,1.5-5.4,3.8c-1.1,2.9-4.4,11.3-6.5,14.7c-3.2,5.2-2.2,19.3,1.7,26.5c3.2,5.9,7.8,6.8,10.2,6.8
			c3.9,0,7.3-1.7,9.9-4.9C106.8,181.1,107.2,170.6,106.2,165.4z M91.7,184.6c-7,0-8-17.5-6-20.7c2.4-3.9,6-13.3,6-13.3
			c0.7,5.3,6.7,11.7,7.7,17C100.4,172.9,98.7,184.6,91.7,184.6z"/>
	</g>
	<g>
		<path fill="#35B729" d="M25.6,284.5c-5.8-15.1-9.3-41.5-10.7-53.2c-0.4-3.5-3.5-6.1-7-5.9c-10.6,0.6-17.4,4.5-20.8,7.1
			c-1.7,1.3-2.7,3.3-2.6,5.4c0.2,28.5,11.2,67,16.6,82.1C5.7,332.7,14.3,377,17.3,393c0.7,3.5,4.1,5.9,7.7,5.4
			c9.5-1.4,16.3-5.6,19.8-8.4c1.8-1.4,2.7-3.6,2.5-5.8C42.6,327.5,33,303.9,25.6,284.5z M23.5,385.8c-2.1-24-13.6-69.3-20.5-89.4
			C-4,276.2-9.7,237.4-9.7,237.4l17.8-6c-0.3,19.9,10.4,63,17,79.1c6.7,16.1,10.5,72.9,10.5,72.9L23.5,385.8z"/>
		<path fill="#35B729" d="M8,189.8c-1-3.9-3.4-7.5-5.8-10.9c-1.8-2.7-3.9-5.7-4.3-7.7c-0.5-2.6-2.7-4.5-5.4-4.7c-0.2,0-0.5,0-0.7,0
			c-2.4,0.1-4.5,1.7-5.2,4c-0.9,2.9-3.8,11.3-5.6,14.7c-2.8,5.3-1.1,19,3.3,25.7c3.6,5.5,8.2,6.1,10.6,6c3.9-0.2,7.2-2.1,9.6-5.3
			C9.4,205.1,9.2,194.7,8,189.8z M-5.4,209.4c-7,0.4-9-16.5-7.2-19.8c2.2-4,5.2-13.4,5.2-13.4c1,5.2,7.4,11,8.7,16.1
			C2.6,197.5,1.6,209-5.4,209.4z"/>
	</g>
	<g>
		<path fill="#35B729" d="M69.1,267.5c-5.9-16.3-9-44.6-10.1-57.1c-0.3-3.7-3.7-6.6-7.6-6.5c-11.8,0.3-19.5,4.3-23.4,6.9
			c-1.9,1.3-3.1,3.4-3.1,5.6c-0.7,30.4,10.1,71.8,15.7,88.1c4.7,13.7,12.8,61.3,15.6,78.5c0.6,3.8,4.3,6.4,8.4,5.9
			c10.6-1.2,18.3-5.5,22.4-8.3c2-1.4,3.2-3.7,3-6.1C86.6,313.9,76.7,288.4,69.1,267.5z M63.3,375.5c-1.6-25.7-12.8-74.4-19.8-96
			c-7-21.7-12.1-63.3-12.1-63.3l20.1-5.9c-1,21.2,9.4,67.5,16.3,84.9c6.9,17.3,9.2,78.1,9.2,78.1L63.3,375.5z"/>
		<path fill="#35B729" d="M52.7,165.9c-1-4.2-3.6-8.1-6.1-11.8c-1.9-2.9-4.1-6.2-4.5-8.3c-0.5-2.8-2.9-4.9-5.8-5.1
			c-0.3,0-0.5,0-0.8,0c-2.7,0.1-5,1.7-5.9,4.1c-1.1,3.1-4.6,11.9-6.8,15.6c-3.3,5.5-1.8,20.2,2.8,27.6c3.8,6,8.9,6.8,11.6,6.7
			c4.3-0.1,8.1-2,10.9-5.4C53.8,182.2,53.9,171.2,52.7,165.9z M37.1,186.4c-7.8,0.2-9.5-17.9-7.4-21.3C32.3,160.9,36,151,36,151
			c0.9,5.5,7.8,11.9,9.1,17.4C46.4,174,44.9,186.2,37.1,186.4z"/>
	</g>
	<path fill="#35B729" d="M130.8,184.6c0,0-0.8-6.3,9.5-5.5s17.8,8.8,16.5,10.5s-8.1,1.8-12.9,1C139,189.9,132.8,187.9,130.8,184.6z"
		/>
	<path fill="#35B729" d="M125.4,144c0,0-2.8-5.6,7.1-8.4s19.7,2.3,19.1,4.4s-7.1,4.4-11.9,5.3C134.9,146.2,128.3,146.4,125.4,144z"
		/>
	<path fill="#35B729" d="M101.6,111.7c0,0-7.3,0.3-5.7-9.9s11.3-17.1,13.2-15.7c1.9,1.4,1.5,8.2,0.3,13
		C108.2,103.8,105.5,109.9,101.6,111.7z"/>
	<path fill="#35B729" d="M49.2,105.9c0,0-6.1,3.1-9.2-7.6s2.2-21.5,4.5-20.9c2.3,0.6,4.9,7.7,5.9,12.9
		C51.5,95.5,51.8,102.7,49.2,105.9z"/>
</g>
<path fill="#44D9E6" d="M968.1,294.8c-1.6,0.5-2.1,2.4-1,3.6c4.6,4.9,13.1,16.3,9.4,29.8c-5,18-18.5,30.4-42.5,25.4s-18-39-14.5-46
	s16.5-25,39.5-25l-33-102.5h-7l4-10.3l110.9-60.6l49.1,128.9c0,0-3,31.5-24.5,41s-36,7.5-43.5-1.5s-4.5-34.7,4.5-45.6
	c9-10.9,25-15.9,41-13.4l-33.5-93l-96,47.5l45.1,115.4c0.8,1.9-0.3,4.1-2.3,4.7L968.1,294.8z"/>
</svg>
