<?xml version="1.0" encoding="utf-8"?>
<!-- Generator: Adobe Illustrator 19.1.0, SVG Export Plug-In . SVG Version: 6.00 Build 0)  -->
<svg version="1.1" baseProfile="tiny" id="Layer_1" xmlns="http://www.w3.org/2000/svg" xmlns:xlink="http://www.w3.org/1999/xlink"
	 x="0px" y="0px" viewBox="83.1 -101.6 1005.9 763.6" xml:space="preserve">
<g>
	<path fill="#FFFFFF" d="M734.2,411c-9.5,0-18.6-3.4-26.4-9.7L579.4,298.5l-128,102.8c-7.8,6.3-16.9,9.5-26.4,9.5
		c-14.7,0-28.7-7.9-36.6-20.7c-7.7-12.4-8.4-27.3-1.7-40.7L567.1-16v-19.7l12.1,8.1l12.2-8.2v19.7l181,365.4
		c6.7,13.5,6.1,28.5-1.6,40.9C762.8,403,748.8,411,734.2,411L734.2,411z"/>
	<path fill="#35B729" d="M762.2,354.5L580.1-13.4v-1l-1,0.5l-1-0.5v1L396.7,354.5c-14.7,29.7,21.7,58.6,47.5,37.9l135.2-108.5
		L715,392.3C740.8,413.1,776.9,384.2,762.2,354.5z"/>
	<rect x="554.2" y="-101.6" fill="#FFFFFF" width="50.7" height="303.9"/>
	<path fill="#5271FF" d="M615.9,224.1h-72.7c-3.1,0-5.7-2.6-5.7-5.7V208c0-3.1,2.6-5.7,5.7-5.7h72.7c3.1,0,5.7,2.6,5.7,5.7v10.4
		C621.6,221.6,619,224.1,615.9,224.1z"/>
	<circle fill="#5271FF" cx="662.3" cy="250.6" r="11.8"/>
	<circle fill="#5271FF" cx="691.7" cy="284" r="11.8"/>
	<g>
		<line fill="none" stroke="#5271FF" stroke-width="4" stroke-miterlimit="10" x1="554.1" y1="213" x2="554.1" y2="-209"/>
		<line fill="none" stroke="#5271FF" stroke-width="4" stroke-miterlimit="10" x1="566.1" y1="213" x2="566.1" y2="-209"/>
		<line fill="none" stroke="#5271FF" stroke-width="4" stroke-miterlimit="10" x1="579.1" y1="213" x2="579.1" y2="-209"/>
		<line fill="none" stroke="#5271FF" stroke-width="4" stroke-miterlimit="10" x1="592.1" y1="213" x2="592.1" y2="-209"/>
		<line fill="none" stroke="#5271FF" stroke-width="4" stroke-miterlimit="10" x1="605.1" y1="213" x2="605.1" y2="-209"/>
	</g>
</g>
<path fill="#0D00FF" d="M1085.3,433.1l-35,14.5c-3.3,1.4-6.8-1.7-5.8-5.2l31-104.2c1.6-5.3-4.5-9.5-8.9-6.2
	c-15.1,11.3-42.4,28.7-83,43.2c-4.1,1.5-6.9,5.2-7.1,9.6l-6.9,143.8c-0.1,2.6,2.6,4.3,4.9,3c8.3-4.7,25-13.5,39.5-17.3
	c1.4-0.4,2.6,0.8,2.4,2.2l-19,114.5c-1.2,7,8.4,10.2,11.6,3.9l94-182.5C1109,440.8,1097.3,428.1,1085.3,433.1z M1086,454.5
	c-11,25.9-49.7,116.5-67.1,148.3c-1.1,1.9-4,0.9-3.7-1.2l13-96.3c0.4-3.3-2.5-6-5.8-5.3c-6.1,1.4-17.5,6.1-38.7,19.6
	c-1.6,1-3.7-0.2-3.6-2.1l5.8-135.5c0,0,53-15,75.5-33.5c0,0-19.4,61.8-35.7,112.8c-1,3.1,1.7,6.1,4.9,5.5
	c7.5-1.4,22.5-5.4,51.3-16.5C1084.5,449.3,1087.1,451.9,1086,454.5z"/>
<g>
	<path fill="#5271FF" d="M328.2-118.5c-14.9-18.7-39.8-29.4-68.3-29.4c-18,0-36.3,4.3-51.3,12.2c-24.2,12.7-35,32.7-42.9,47.4
		c-2.2,4.2-4.2,7.8-6,10.4l-0.3,0.5l-0.3,0.5c-4.2,7.5-40.1,74.5,2.7,120.8c24.7,26.7,56.4,33.8,69.7,33.8
		c27.1,0,52.6-13.7,73.7-39.7c16.6-20.4,29.5-48,34.8-73.9C343.4-53.5,350.8-90.1,328.2-118.5z M328.1-38.3c-9,44.6-45,104-96.7,104
		c-10,0-38.7-5.9-60.9-29.9c-35.8-38.7-7.1-96-1.1-106.7c9-12.9,16.9-39.4,44.7-54c32.4-17,81.3-15.3,104.7,14
		C337.9-87,331.5-54.9,328.1-38.3z"/>
	<path fill="#5271FF" d="M176.6,51.5L159,64.2c-2.7,2-3.1,5.9-0.8,8.3c5.9,6.2,17.7,17.1,33.4,23.3c3.5,1.4,7.4-1.1,7.6-4.9
		l1.4-25.3L176.6,51.5z M191.1,87.3l-24.7-19L185.1,57l11.8,7L191.1,87.3z"/>
	<path fill="#5271FF" d="M172.3,79.2c0,0-19.3,33.4-39.6,43.8c-20.3,10.3-55.6,34.5-65.6,63.8v15.3c0,0,19.8-50.3,55.8-65.5
		s52.2-54.5,52.2-54.5L172.3,79.2z"/>
	<circle fill="#5271FF" cx="226" cy="52.3" r="4.9"/>
	<path fill="#5271FF" d="M240.3,49c12.7-7.5,40.3-24.9,50.8-41.4c0.4-0.6,1.3-0.6,1.1,0c-3.4,10.2-15.3,35.9-51.7,43.9
		C238.7,51.8,238.6,50,240.3,49z"/>
</g>
<g>
	<path fill="#0D00FF" d="M285.9,405.8l-10.1-13.9c-0.8-1.2-1.2-2.6-1-4l3.4-24.6c0.6-4.4-4-7.7-8-5.7l-20,10.1
		c-2.1,1.1-4.7,0.7-6.4-1l-18.6-18c-3.5-3.4-9.3-1-9.4,3.9l-0.7,37c0,1.6-0.8,3.1-2,4.2L197,406.9c-3.5,2.9-2.2,8.6,2.2,9.7
		l23.6,5.6c1.2,0.3,2.3,1,3.1,2l14.2,18c2.3,2.9,6.7,2.8,8.9-0.2l10.6-14.9c0.5-0.7,1.2-1.3,2-1.7l22.3-11.4
		C287,412.4,287.9,408.5,285.9,405.8z M273,411.8l-19.1,5c-0.6,0.1-1,0.5-1.3,1.1l-8.1,17.3c-0.7,1.4-2.6,1.5-3.5,0.3l-13.9-20.7
		c-0.3-0.5-0.8-0.8-1.4-0.9l-16.5-2.2c-1.7-0.2-2.3-2.4-1-3.5l15.9-12.5c0.5-0.4,0.8-1,0.8-1.6v-29c0-1.6,1.8-2.6,3.2-1.6l19.3,14.7
		c0.7,0.5,1.6,0.5,2.4,0l14.4-10.3c1.5-1.1,3.5,0.3,3.1,2.1l-5.7,22.4c-0.2,0.6,0,1.3,0.4,1.8l12,14.5
		C275,409.7,274.4,411.4,273,411.8z"/>
	<path fill="#0D00FF" d="M150.3,351.9c-1.5-2.5-1.1-5.6,0.8-7.8c6.7-7.6,7.3-17.6,7-23.3c-0.2-3-2.3-5.6-5.2-6.1
		c-7.3-1.4-15.7,1.4-21.2,3.8c-3.2,1.4-7,0-8.5-3.1c-4.8-9.5-12.5-15.4-17.4-18.3c-2.7-1.6-6.3-1.2-8.3,1.2
		C90.2,306.7,88,320,87.3,327c-0.3,2.6-2,4.8-4.5,5.6c-8.3,2.7-15.5,9.2-19.8,13.6c-2.6,2.7-2.4,7,0.3,9.5
		c7.9,7.1,19.4,11.3,25.5,13.2c2.5,0.8,4.2,2.9,4.6,5.5c1,7.6,3.1,12.7,4.8,15.8c1.5,2.8,4.8,4,7.8,3c7.8-2.5,14.3-7.2,17.8-10.2
		c1.8-1.5,4.3-2,6.5-1.2c9.7,3.5,17.9,2.9,22.8,1.9c3.1-0.6,5.4-3.3,5.3-6.5C158.4,367.4,153.5,357.4,150.3,351.9z M147.3,331.1
		l-8.9,14.9c-1,1.7-1.2,3.7-0.4,5.5l8,20.1c0.8,1.9-1,3.8-3,3.3l-17.3-5c-1.4-0.4-2.9-0.2-4.1,0.7l-13,9c-1.9,1.3-4.5,0.4-5.2-1.7
		l-4.7-14.4c-0.5-1.7-1.8-3-3.4-3.7l-21.2-9c-1.8-0.8-1.9-3.3-0.1-4.1l25.8-12.5l3.1-20.3c0.2-1.4,2-1.8,2.8-0.7l14.7,20.8
		c1.4,2.1,4.1,2.9,6.5,2.1l18.7-7.3C146.8,328.5,148,329.9,147.3,331.1z"/>
	<path fill="#0D00FF" d="M140.7,500.7c-2.1-3.6-1.6-8,1.2-11.1c9.6-10.9,10.5-25.3,10-33.4c-0.2-4.3-3.3-7.9-7.5-8.8
		c-10.4-2-22.4,2-30.3,5.5c-4.6,2-10,0-12.2-4.5c-6.8-13.7-17.9-22-24.9-26.2c-3.9-2.3-9-1.7-11.9,1.8c-10.4,12-13.6,31.1-14.6,41
		c-0.4,3.7-2.9,6.9-6.4,8c-11.8,3.9-22.2,13.1-28.3,19.5c-3.7,3.9-3.5,10,0.5,13.6c11.3,10.2,27.8,16.2,36.5,18.9
		c3.5,1.1,6.1,4.2,6.6,7.8c1.5,10.9,4.4,18.1,6.9,22.6c2.2,4,6.9,5.7,11.2,4.4c11.2-3.6,20.5-10.3,25.5-14.6
		c2.6-2.2,6.2-2.8,9.3-1.7c13.8,5,25.6,4.2,32.7,2.8c4.4-0.9,7.7-4.8,7.6-9.3C152.3,523,145.3,508.7,140.7,500.7z M136.4,471
		l-12.8,21.4c-1.4,2.4-1.7,5.3-0.6,7.9l11.5,28.8c1.1,2.7-1.4,5.5-4.3,4.7l-24.8-7.1c-2-0.6-4.2-0.2-5.9,1l-18.6,13
		c-2.7,1.9-6.4,0.6-7.5-2.5l-6.7-20.5c-0.8-2.4-2.5-4.3-4.8-5.2l-30.3-13.1c-2.6-1.1-2.7-4.7-0.1-5.9l37-17.9l4.4-29.1
		c0.3-2,2.9-2.6,4-1l21,29.8c2.1,2.9,5.8,4.2,9.3,3.1l26.8-10.5C135.7,467.3,137.4,469.3,136.4,471z"/>
</g>
<g>
	<path fill="#7CF66D" d="M1144.5,122.8L960.4-11.6c-0.5-0.4-0.3-1.3,0.3-1.3c6-0.9,26.4-2.5,30.4-11.7c3.9-9-6.9-16.7-13.1-18.8
		c-1.7-0.6-3.5,0-4.6,1.4c-1.5,1.9-4.2,4.8-7.5,7.2c-0.5,0.4-1.2-0.2-0.8-0.8c3-4.6,8-15.1,0.5-25.5c-5.8-8.1-16.1-6.9-21.6-5.5
		c-1.8,0.5-2.6,2.5-1.6,4.1c2,3.1,4.7,8.2,5.2,14c0.1,1-1.3,1.4-1.8,0.5c-3-6.2-10-17.4-22.3-17.4c-10.5,0-13.3,4.1-13.9,7.2
		c-0.4,1.9,0.6,3.7,2.3,4.6c4.9,2.5,16.9,9.2,22,18.6c0.4,0.7-0.3,1.5-1.1,1.2c-3.7-1.5-11.6-4-17.1-2.4
		c-7.5,2.3-10.3,14.8-7.5,19.8s8,7.5,12.5,5.8c4-1.6,10.1-6.1,17-4.4c1.5,0.4,2.5,1.6,2.7,3.2l26.2,246.7c0.3,2.9,2.7,5.1,5.6,5.2
		c20.6,0.6,100.7-4.5,173.7-107.9C1148.2,129.1,1147.5,124.9,1144.5,122.8z M931.2-21.9c-3.2,0.5-8.4,1.8-13.5,5
		c-0.9,0.6-2.2,0.2-2.7-0.8c-1.1-2.2-2.3-6.1-0.6-9.7c2.3-4.7,10.6-0.7,17.2,3.3C932.6-23.5,932.3-22.1,931.2-21.9z M940.3-33.4
		c-4.5-9.9-15.2-18-20-21.2c-0.9-0.6-0.7-2.1,0.4-2.3c7.4-1.7,13.1,1.4,18.1,5.5C944.5-46.7,945.1-23.1,940.3-33.4z M975.3-36.7
		c0.7-1,2.1-1.3,3.1-0.6c2.3,1.7,5.7,4.8,6.5,8.4c1.1,5.2-13.3,11.9-30.9,7.3c-0.9-0.2-0.9-1.4-0.1-1.8
		C959.2-25.3,970.8-30.3,975.3-36.7z M949.7-63.2c3.6,0,12.6,1.1,13.4,11.3c0.7,9.2-4.3,14.3-7.2,16.4c-0.7,0.5-1.6-0.1-1.5-0.9
		c1.4-10.7-3.7-21.9-5.6-25.5C948.6-62.5,949-63.2,949.7-63.2z M977.5,235.8L948.8-11.5l186.7,137.3
		C1135.5,125.8,1099.5,213.8,977.5,235.8z"/>
	<g id="XMLID_1_">
		<path fill="#7CF66D" d="M1117.3,112.6l6.8,5c-5.3,14.7-13,35-21.3,54.1c-6.1,6.3-13.2,12.8-21.4,19.2
			C1092.7,168.8,1107.4,138.5,1117.3,112.6z"/>
		<path fill="#7CF66D" d="M1105.7,104.1l3.8,2.8c-12,26.8-31.6,67.8-53.2,100.8c-5.5,3.1-11.3,6.2-17.5,9
			C1059.7,190.6,1086.8,151.2,1105.7,104.1z"/>
		<path fill="#7CF66D" d="M1087.3,90.5l7.1,5.3c-16.1,32.2-51.9,98.9-88.8,133.4c-7.2,2.1-14.7,4-22.5,5.6
			C1004.8,219.5,1040.4,182.1,1087.3,90.5z"/>
		<path fill="#7CF66D" d="M1067.8,76.2l10.8,8c-17.5,32.9-64.3,116.5-102.2,143.7l-1.4-11.8C997.1,196.4,1037.7,152.7,1067.8,76.2z"
			/>
		<path fill="#7CF66D" d="M1045.6,59.8l11,8.1c-10.4,28.9-36.1,87.8-84.1,126.3l-1.4-12C991.8,165.8,1028.1,128.6,1045.6,59.8z"/>
		<path fill="#7CF66D" d="M1031.7,49.6l6.8,5c-11.3,47.8-48.5,92.9-69,115l-1.3-11.5C1006,122.3,1023.7,77.7,1031.7,49.6z"/>
		<path fill="#7CF66D" d="M1016.1,38.1l5.4,3.9c-6,39.6-38.2,79.8-55.2,98.6l-1.4-12.3C995.2,93,1009.4,60,1016.1,38.1z"/>
		<path fill="#7CF66D" d="M999.8,26.2l7.6,5.6c-4.8,34.3-21.6,63.3-44.6,79.9l-1.2-10C981.3,84.6,995.4,57.6,999.8,26.2z"/>
		<path fill="#7CF66D" d="M989.5,18.6l3.9,2.9c-4.4,27.3-16.5,51-33.3,67.3l-1.2-9.9C973.8,63.8,984.7,42.8,989.5,18.6z"/>
		<path fill="#7CF66D" d="M974.8,7.8l7,5.1c-5.2,17.4-14,32.7-25.2,44.6l-1.3-11.6C963.8,35.2,970.5,22.2,974.8,7.8z"/>
		<path fill="#7CF66D" d="M962-1.6l5.6,4.1c-3.3,10.9-8.1,21-14,29.9l-1.5-13C956,12.9,959.4,5.9,962-1.6z"/>
	</g>
</g>
</svg>
